<svg width="19" height="18" viewBox="0 0 19 18" fill="none" xmlns="http://www.w3.org/2000/svg">
<path d="M14 5.25H12.5L12.0065 3.76941C11.8535 3.30966 11.4237 3 10.9392 3H8.06079C7.57629 3 7.14647 3.30966 6.99347 3.76941L6.5 5.25H5C3.5 5.25 2.75 6 2.75 7.5V13.5C2.75 15 3.5 15.75 5 15.75H14C15.5 15.75 16.25 15 16.25 13.5V7.5C16.25 6 15.5 5.25 14 5.25ZM9.5 12.75C8.25725 12.75 7.25 11.7428 7.25 10.5C7.25 9.25725 8.25725 8.25 9.5 8.25C10.7428 8.25 11.75 9.25725 11.75 10.5C11.75 11.7428 10.7428 12.75 9.5 12.75ZM13.625 8.625C13.211 8.625 12.875 8.289 12.875 7.875C12.875 7.461 13.211 7.125 13.625 7.125C14.039 7.125 14.375 7.461 14.375 7.875C14.375 8.289 14.039 8.625 13.625 8.625Z" fill="#3C3C43" fill-opacity="0.6"/>
</svg>
