<svg width="25" height="24" viewBox="0 0 25 24" fill="none" xmlns="http://www.w3.org/2000/svg">
<path opacity="0.4" d="M16.69 2H8.31C4.67 2 2.5 4.17 2.5 7.81V16.18C2.5 19.83 4.67 22 8.31 22H16.68C20.32 22 22.49 19.83 22.49 16.19V7.81C22.5 4.17 20.33 2 16.69 2Z" fill="white" fill-opacity="0.4"/>
<path d="M7.5 14.35C7.09 14.35 6.75 14.01 6.75 13.6V10.4C6.75 9.99002 7.09 9.65002 7.5 9.65002C7.91 9.65002 8.25 9.99002 8.25 10.4V13.61C8.25 14.02 7.91 14.35 7.5 14.35Z" fill="white" fill-opacity="0.4"/>
<path d="M12.5 16.09C12.09 16.09 11.75 15.75 11.75 15.34V8.65997C11.75 8.24997 12.09 7.90997 12.5 7.90997C12.91 7.90997 13.25 8.24997 13.25 8.65997V15.34C13.25 15.75 12.91 16.09 12.5 16.09Z" fill="white" fill-opacity="0.4"/>
<path d="M17.5 14.35C17.09 14.35 16.75 14.01 16.75 13.6V10.4C16.75 9.99002 17.09 9.65002 17.5 9.65002C17.91 9.65002 18.25 9.99002 18.25 10.4V13.61C18.25 14.02 17.91 14.35 17.5 14.35Z" fill="white" fill-opacity="0.4"/>
</svg>
