<svg width="28" height="28" viewBox="0 0 28 28" fill="none" xmlns="http://www.w3.org/2000/svg">
<g filter="url(#filter0_dd_1_536)">
<path d="M20.94 6.42L15.77 3.43C14.78 2.86 13.23 2.86 12.24 3.43L7.01999 6.44C4.94999 7.84 4.82999 8.05 4.82999 10.28V15.71C4.82999 17.94 4.94999 18.16 7.05999 19.58L12.23 22.57C12.73 22.86 13.37 23 14 23C14.63 23 15.27 22.86 15.76 22.57L20.98 19.56C23.05 18.16 23.17 17.95 23.17 15.72V10.28C23.17 8.05 23.05 7.84 20.94 6.42ZM14 16.25C12.21 16.25 10.75 14.79 10.75 13C10.75 11.21 12.21 9.75 14 9.75C15.79 9.75 17.25 11.21 17.25 13C17.25 14.79 15.79 16.25 14 16.25Z" fill="#A099FF"/>
</g>
<defs>
<filter id="filter0_dd_1_536" x="0.829987" y="0.00250244" width="26.34" height="27.9975" filterUnits="userSpaceOnUse" color-interpolation-filters="sRGB">
<feFlood flood-opacity="0" result="BackgroundImageFix"/>
<feColorMatrix in="SourceAlpha" type="matrix" values="0 0 0 0 0 0 0 0 0 0 0 0 0 0 0 0 0 0 127 0" result="hardAlpha"/>
<feOffset dy="1"/>
<feGaussianBlur stdDeviation="2"/>
<feComposite in2="hardAlpha" operator="out"/>
<feColorMatrix type="matrix" values="0 0 0 0 0.0470588 0 0 0 0 0.0470588 0 0 0 0 0.0509804 0 0 0 0.05 0"/>
<feBlend mode="normal" in2="BackgroundImageFix" result="effect1_dropShadow_1_536"/>
<feColorMatrix in="SourceAlpha" type="matrix" values="0 0 0 0 0 0 0 0 0 0 0 0 0 0 0 0 0 0 127 0" result="hardAlpha"/>
<feOffset dy="1"/>
<feGaussianBlur stdDeviation="2"/>
<feComposite in2="hardAlpha" operator="out"/>
<feColorMatrix type="matrix" values="0 0 0 0 0.0470588 0 0 0 0 0.0470588 0 0 0 0 0.0509804 0 0 0 0.1 0"/>
<feBlend mode="normal" in2="effect1_dropShadow_1_536" result="effect2_dropShadow_1_536"/>
<feBlend mode="normal" in="SourceGraphic" in2="effect2_dropShadow_1_536" result="shape"/>
</filter>
</defs>
</svg>
