<svg width="22" height="23" viewBox="0 0 22 23" fill="none" xmlns="http://www.w3.org/2000/svg">
<path d="M11 2.33333C5.94915 2.33333 1.83331 6.44916 1.83331 11.5C1.83331 16.5508 5.94915 20.6667 11 20.6667C16.0508 20.6667 20.1666 16.5508 20.1666 11.5C20.1666 6.44916 16.0508 2.33333 11 2.33333ZM15.3816 9.39166L10.1841 14.5892C10.0558 14.7175 9.88165 14.7908 9.69831 14.7908C9.51498 14.7908 9.34081 14.7175 9.21248 14.5892L6.61831 11.995C6.35248 11.7292 6.35248 11.2892 6.61831 11.0233C6.88415 10.7575 7.32415 10.7575 7.58998 11.0233L9.69831 13.1317L14.41 8.41999C14.6758 8.15416 15.1158 8.15416 15.3816 8.41999C15.6475 8.68583 15.6475 9.11666 15.3816 9.39166Z" fill="white"/>
</svg>
